<?xml version="1.0" encoding="utf-8"?>
<!-- Generator: Adobe Illustrator 23.1.1, SVG Export Plug-In . SVG Version: 6.00 Build 0)  -->
<svg version="1.1" id="Calque_1" xmlns="http://www.w3.org/2000/svg" xmlns:xlink="http://www.w3.org/1999/xlink" x="0px" y="0px"
	 viewBox="0 0 500 500" style="enable-background:new 0 0 500 500;" xml:space="preserve">
<path d="M214.2,238.1h4.8c0.4,0,0.8-0.4,0.8-0.8v-10.5h11.4v10.5c0,0.4,0.3,0.8,0.8,0.8h4.8c0.4,0,0.8-0.4,0.8-0.8v-26.5
	c0-0.4-0.4-0.8-0.8-0.8h-4.8c-0.4,0-0.8,0.4-0.8,0.8V221h-11.4v-10.1c0-0.4-0.3-0.8-0.8-0.8h-4.8c-0.4,0-0.8,0.4-0.8,0.8v26.5
	C213.4,237.8,213.8,238.1,214.2,238.1"/>
<path d="M266.7,238.5c8,0,14.4-6.4,14.4-14.4c0-8-6.4-14.4-14.4-14.4c-8,0-14.4,6.4-14.4,14.4C252.4,232.2,258.7,238.5,266.7,238.5
	 M266.7,216.1c4.4,0,8,3.6,8,8c0,4.4-3.6,8-8,8c-4.4,0-8-3.6-8-8C258.8,219.8,262.4,216.1,266.7,216.1"/>
<path d="M261.9,207.5c0.2,0.3,0.4,0.4,0.9,0.2l4-2.3l4,2.3c0.3,0.2,0.6,0.1,0.8-0.2l1.4-1.8c0.2-0.3,0-0.6-0.2-0.8l-5.5-4.2
	c-0.2-0.2-0.6-0.2-1,0l-5.4,4.2c-0.2,0.2-0.4,0.5-0.2,0.8L261.9,207.5z"/>
<path d="M293.8,216h5.7v21.4c0,0.4,0.4,0.8,0.8,0.8h4.8c0.4,0,0.8-0.4,0.8-0.8V216h5.7c0.4,0,0.8-0.4,0.8-0.8v-4.4
	c0-0.4-0.3-0.8-0.8-0.8h-17.8c-0.4,0-0.8,0.4-0.8,0.8v4.4C293,215.7,293.4,216,293.8,216"/>
<path d="M327.2,238.1h16.6c0.4,0,0.8-0.4,0.8-0.8V233c0-0.4-0.3-0.8-0.8-0.8h-11.1v-5.4h9.1c0.4,0,0.8-0.3,0.8-0.8v-4.4
	c0-0.4-0.4-0.8-0.8-0.8h-9.1v-5h11.1c0.4,0,0.8-0.4,0.8-0.8v-4.4c0-0.4-0.3-0.8-0.8-0.8h-16.6c-0.4,0-0.8,0.4-0.8,0.8v26.5
	C326.4,237.8,326.8,238.1,327.2,238.1"/>
<path d="M375.8,232.3h-9.5v-21.4c0-0.4-0.4-0.8-0.8-0.8h-4.8c-0.4,0-0.8,0.4-0.8,0.8v26.5c0,0.4,0.3,0.8,0.8,0.8h15
	c0.4,0,0.8-0.4,0.8-0.8V233C376.5,232.6,376.2,232.3,375.8,232.3"/>
<path d="M214.2,280.1h15c0.4,0,0.8-0.4,0.8-0.8V275c0-0.4-0.3-0.8-0.8-0.8h-9.5v-21.4c0-0.4-0.4-0.8-0.8-0.8h-4.8
	c-0.4,0-0.8,0.4-0.8,0.8v26.5C213.4,279.8,213.7,280.1,214.2,280.1"/>
<path d="M255.5,279.4V275c0-0.4-0.3-0.8-0.8-0.8h-11.1v-5.4h9.1c0.4,0,0.8-0.3,0.8-0.8v-4.4c0-0.4-0.4-0.8-0.8-0.8h-9.1v-5h11.1
	c0.4,0,0.8-0.4,0.8-0.8v-4.4c0-0.4-0.3-0.8-0.8-0.8h-16.6c-0.4,0-0.8,0.4-0.8,0.8v26.5c0,0.4,0.3,0.8,0.8,0.8h16.6
	C255.1,280.1,255.5,279.8,255.5,279.4"/>
<path d="M296.2,272.4c0-3.7-3.2-5.6-5.4-6.5c1.9-1,4.6-3.2,4.6-6.3c0-4.2-3.9-7.4-8.6-7.4h-9.3c-0.4,0-0.8,0.4-0.8,0.8v26.5
	c0,0.4,0.3,0.8,0.8,0.8h9.9C292.2,280.1,296.2,276.9,296.2,272.4 M283,257.9h3.1c1.5,0,2.8,1.1,2.8,2.7c0,1.6-1.3,2.9-2.8,2.9H283
	V257.9z M283,274.4v-5.7h3.2c1.6,0,3.3,1.2,3.3,2.8c0,1.6-1.3,2.9-2.9,2.9H283z"/>
<path d="M331.5,266.2c0-8-6.4-14.4-14.4-14.4c-8,0-14.4,6.4-14.4,14.4c0,8,6.4,14.4,14.4,14.4C325.1,280.5,331.5,274.2,331.5,266.2
	 M309.2,266.2c0-4.4,3.6-8,8-8c4.4,0,8,3.6,8,8c0,4.4-3.6,8-8,8C312.8,274.1,309.2,270.5,309.2,266.2"/>
<path d="M345.5,252.1h-4.8c-0.4,0-0.8,0.4-0.8,0.8v26.5c0,0.4,0.4,0.8,0.8,0.8h4.8c0.4,0,0.8-0.4,0.8-0.8v-26.5
	C346.3,252.5,345.9,252.1,345.5,252.1"/>
<path d="M362.7,268.5c2.7,1.1,4.1,2.4,4.1,4c0,1.4-1.2,2.4-2.8,2.4c-2.6,0-5.5-2.1-5.7-2.2c-0.3-0.2-1-0.3-1.4,0.2l-1.9,3.3
	c-0.3,0.6-0.2,0.7,0.2,1.1c0.9,0.9,3.8,3.1,9,3.1c5.9,0,9.4-4.2,9.4-8.3c0-5.4-5-7.9-8.1-9.1c-3.2-1.3-4.4-2.4-4.4-3.9
	c0-1.1,1.1-2,2.5-2c2.4,0,5.4,2.2,5.7,2.4c0.4,0.3,1.1-0.1,1.4-0.5l2-3.1c0.2-0.3,0.2-1-0.2-1.3c-1.2-0.9-4.4-3-8.6-3
	c-6.2,0-9.2,4-9.2,8C354.9,264.5,359.2,267.2,362.7,268.5"/>
<path d="M223.9,294.1h-9.8c-0.4,0-0.7,0.4-0.7,0.8v26.5c0,0.4,0.3,0.8,0.7,0.8h9.8c7.7,0,14-6.3,14-14
	C237.9,300.4,231.6,294.1,223.9,294.1 M223.5,316.2h-3.8V300h3.8c4.5,0,7.8,3.6,7.8,8.1C231.3,312.7,228,316.2,223.5,316.2"/>
<path d="M258.7,293.7c-8,0-14.4,6.4-14.4,14.4c0,8,6.4,14.4,14.4,14.4c8,0,14.4-6.4,14.4-14.4C273.1,300.2,266.7,293.7,258.7,293.7
	 M258.7,316.1c-4.4,0-8-3.6-8-8c0-4.4,3.6-8,8-8c4.4,0,8,3.6,8,8C266.7,312.5,263.1,316.1,258.7,316.1"/>
<path d="M302.9,302.8c0-4.8-3.9-8.6-8.7-8.6h-12c-0.4,0-0.8,0.4-0.8,0.8v26.5c0,0.4,0.3,0.8,0.8,0.8h4.8c0.4,0,0.8-0.4,0.8-0.8
	v-10.2h2.8l5.3,10.6c0.1,0.2,0.3,0.4,0.6,0.4h5.3c0.7,0,1-0.6,0.7-1.2l-5.5-10.2C300.5,309.4,302.9,306.5,302.9,302.8 M293.7,306.1
	h-5.9v-6.2h5.9c1.6,0,3,1.4,3,3C296.7,304.6,295.3,306.1,293.7,306.1"/>
<path d="M336.6,293.7h-0.6c-0.2,0-0.6,0.2-0.7,0.4l-9.3,17.3h-0.1l-9.3-17.3c-0.1-0.2-0.5-0.4-0.7-0.4h-0.6c-0.3,0-0.7,0.3-0.7,0.6
	l-4.5,26.9c-0.1,0.5,0.3,0.9,0.8,0.9h4.7c0.4,0,0.7-0.3,0.8-0.6l1.8-12.4h0.1l6.8,13c0.1,0.2,0.4,0.4,0.7,0.4h0.7
	c0.2,0,0.6-0.2,0.7-0.4l6.7-13h0.1l1.8,12.4c0,0.3,0.4,0.6,0.8,0.6h4.7c0.5,0,0.8-0.4,0.8-0.9l-4.5-26.9
	C337.3,294,336.9,293.7,336.6,293.7"/>
<path d="M361.2,294.2c-0.1-0.2-0.4-0.4-0.7-0.4h-0.4c-0.3,0-0.6,0.2-0.7,0.4l-12.5,26.9c-0.2,0.5,0.1,1,0.7,1h4.4
	c0.8,0,1.2-0.5,1.4-1l1.4-3.2h10.9l1.4,3.2c0.4,0.8,0.7,1,1.4,1h4.4c0.6,0,0.9-0.5,0.7-1L361.2,294.2z M357.3,312.5l3-6.6h0l3,6.6
	H357.3z"/>
<path d="M403.8,294.1H399c-0.4,0-0.8,0.4-0.8,0.8v14.2h0l-16-15.4h-1c-0.4,0-0.8,0.3-0.8,0.7l0,26.9c0,0.4,0.4,0.8,0.8,0.8h4.8
	c0.4,0,0.8-0.4,0.8-0.8v-14.9h0l15.8,15.9c0.1,0.1,0.4,0.2,0.5,0.2h0.6c0.4,0,0.8-0.3,0.8-0.7v-26.9
	C404.6,294.5,404.2,294.1,403.8,294.1"/>
<path d="M430.7,294.1h-17.8c-0.4,0-0.8,0.4-0.8,0.8v4.4c0,0.4,0.3,0.8,0.8,0.8h5.7v21.4c0,0.4,0.4,0.8,0.8,0.8h4.8
	c0.4,0,0.8-0.4,0.8-0.8V300h5.7c0.4,0,0.8-0.4,0.8-0.8v-4.4C431.4,294.5,431.1,294.1,430.7,294.1"/>
<path d="M127.3,171c-32.3,0-58.6,26.3-58.6,58.6v99.6h117.2v-99.6C185.9,197.2,159.6,171,127.3,171 M182.9,326.2H71.7v-96.6
	c0-30.7,24.9-55.6,55.6-55.6c30.7,0,55.6,24.9,55.6,55.6V326.2z"/>
<path d="M127.2,178.1c-28.7,0-52,23.3-52,52v92.8h104v-92.8C179.2,201.4,155.9,178.1,127.2,178.1 M176.2,319.9H81.5
	c11.8-5.1,48.3-18.9,94.6-19.2V319.9z M176.2,297.7c-9.6,0.1-18.8,0.7-27.5,1.7v-27.9c6.2,6.9,14.4,11.7,23.3,13.9l0.7-2.9
	c-9.4-2.3-17.9-7.8-23.9-15.5l-0.1-0.2v-15.5c6.2,6.9,14.4,11.7,23.3,13.9l0.7-2.9c-9.4-2.3-17.9-7.8-23.9-15.5l-0.1-0.2V231
	c6.2,6.9,14.4,11.7,23.3,13.9l0.7-2.9c-9.4-2.3-17.9-7.8-23.9-15.5l-1.6-2.4l-1.6,2.4c-6.1,7.7-14.4,13.1-24,15.5l0.7,2.9
	c9.1-2.3,17.1-7.1,23.3-13.9v15.6l-0.1,0.2c-6.1,7.7-14.4,13.1-24,15.5l0.7,2.9c9.1-2.3,17.1-7.1,23.3-13.9v15.5l-0.1,0.2
	c-6.1,7.7-14.4,13.1-24,15.5l0.7,2.9c9.1-2.3,17.1-7.1,23.3-13.9v28.3c-16.2,2.1-30.4,5.5-41.7,8.9v-13.8c3.6,3.5,8,6.1,12.8,7.3
	l0.7-2.9c-5.3-1.3-10.1-4.4-13.5-8.8l-0.1-0.1v-7.2c3.6,3.5,8,6.1,12.8,7.3l0.7-2.9c-5.3-1.3-10.1-4.4-13.5-8.8l-0.1-0.1v-7.2
	c3.6,3.5,8,6.1,12.8,7.3l0.7-2.9c-5.3-1.3-10.1-4.4-13.5-8.8l-1.5-1.5l-1.1,1.1l-0.4,0.4c-3.4,4.4-8.2,7.5-13.5,8.8l0.7,2.9
	c4.7-1.2,9.1-3.6,12.6-7.1v7.2c-3.4,4.3-8.1,7.3-13.4,8.6l0.7,2.9c4.7-1.2,9.1-3.6,12.6-7.1v7.2c-3.4,4.3-8.1,7.3-13.4,8.6l0.7,2.9
	c4.7-1.2,9.1-3.6,12.6-7.1v14.5c-11.3,3.5-19.3,6.9-22.8,8.5v-88c0-27,22-49,49-49c27,0,49,22,49,49V297.7z"/>
</svg>
