<?xml version="1.0" encoding="utf-8"?>
<!-- Generator: Adobe Illustrator 23.1.1, SVG Export Plug-In . SVG Version: 6.00 Build 0)  -->
<svg version="1.1" id="Calque_1" xmlns="http://www.w3.org/2000/svg" xmlns:xlink="http://www.w3.org/1999/xlink" x="0px" y="0px"
	 viewBox="0 0 500 500" style="enable-background:new 0 0 500 500;" xml:space="preserve">
<g>
	<path d="M215.5,363.1l-2.7,0c-0.2,0-0.4,0.2-0.4,0.4l0,5.7l-6.5,0l0-5.7c0-0.2-0.2-0.4-0.4-0.4l-2.7,0c-0.2,0-0.4,0.2-0.4,0.4l0,15
		c0,0.2,0.2,0.4,0.4,0.4l2.7,0c0.2,0,0.4-0.2,0.4-0.4l0-6l6.5,0l0,6c0,0.2,0.2,0.4,0.4,0.4l2.7,0c0.2,0,0.4-0.2,0.4-0.4l0-15
		C215.9,363.4,215.7,363.1,215.5,363.1"/>
	<path d="M232.6,362.9c-4.5,0-8.1,3.7-8.1,8.2c0,4.5,3.6,8.1,8.2,8.1c4.5,0,8.2-3.6,8.2-8.2C240.8,366.6,237.1,362.9,232.6,362.9
		 M232.6,375.6c-2.5,0-4.5-2-4.5-4.5c0-2.5,2-4.6,4.5-4.6c2.5,0,4.5,2.1,4.5,4.6C237.1,373.6,235.1,375.6,232.6,375.6"/>
	<path d="M229.1,360.6l0.8,1.1c0.1,0.2,0.2,0.2,0.5,0.1l2.3-1.3l2.2,1.3c0.2,0.1,0.4,0,0.5-0.1l0.8-1c0.1-0.2,0-0.3-0.1-0.4
		l-3.1-2.4c-0.1-0.1-0.4-0.1-0.5,0l-3.1,2.4C229.1,360.2,229,360.4,229.1,360.6"/>
	<path d="M258,363.1l-10.1,0c-0.2,0-0.4,0.2-0.4,0.4l0,2.5c0,0.2,0.2,0.4,0.4,0.4l3.2,0l0,12.1c0,0.2,0.2,0.4,0.4,0.4l2.7,0
		c0.2,0,0.4-0.2,0.4-0.4l0-12.1l3.2,0c0.2,0,0.4-0.2,0.4-0.4l0-2.5C258.5,363.3,258.3,363.1,258,363.1"/>
	<path d="M276.3,375.6l-6.3,0l0-3.1l5.2,0c0.2,0,0.4-0.2,0.4-0.4l0-2.5c0-0.2-0.2-0.4-0.4-0.4l-5.2,0l0-2.8l6.3,0
		c0.2,0,0.4-0.2,0.4-0.4l0-2.5c0-0.2-0.2-0.4-0.4-0.4l-9.4,0c-0.2,0-0.4,0.2-0.4,0.4l0,15c0,0.2,0.2,0.4,0.4,0.4l9.4,0
		c0.2,0,0.4-0.2,0.4-0.4l0-2.5C276.7,375.8,276.6,375.6,276.3,375.6"/>
	<path d="M294.5,375.6l-5.4,0l0-12.1c0-0.2-0.2-0.4-0.4-0.4l-2.7,0c-0.2,0-0.4,0.2-0.4,0.4l0,15c0,0.2,0.2,0.4,0.4,0.4l8.5,0
		c0.2,0,0.4-0.2,0.4-0.4l0-2.5C294.9,375.8,294.7,375.6,294.5,375.6"/>
	<path d="M66.2,329.2h-9.5v-21.4c0-0.4-0.4-0.8-0.8-0.8h-4.8c-0.4,0-0.8,0.4-0.8,0.8v26.5c0,0.4,0.3,0.8,0.8,0.8h15
		c0.4,0,0.8-0.4,0.8-0.8v-4.4C67,329.5,66.7,329.2,66.2,329.2"/>
	<path d="M91.8,307H75.2c-0.4,0-0.8,0.4-0.8,0.8v26.5c0,0.4,0.3,0.8,0.8,0.8h16.6c0.4,0,0.8-0.4,0.8-0.8v-4.4c0-0.4-0.3-0.8-0.8-0.8
		H80.7v-5.4h9.1c0.4,0,0.8-0.3,0.8-0.8v-4.4c0-0.4-0.4-0.8-0.8-0.8h-9.1v-5h11.1c0.4,0,0.8-0.4,0.8-0.8v-4.4
		C92.5,307.4,92.2,307,91.8,307"/>
	<path d="M127.9,320.8c1.9-1,4.6-3.2,4.6-6.3c0-4.2-3.9-7.4-8.6-7.4h-9.3c-0.4,0-0.8,0.4-0.8,0.8v26.5c0,0.4,0.3,0.8,0.8,0.8h9.9
		c4.8,0,8.7-3.2,8.7-7.7C133.2,323.6,130,321.7,127.9,320.8 M120.1,312.8h3.1c1.5,0,2.8,1.1,2.8,2.7c0,1.6-1.3,2.9-2.8,2.9h-3.1
		V312.8z M123.7,329.3h-3.6v-5.7h3.2c1.6,0,3.3,1.2,3.3,2.8C126.6,328,125.3,329.3,123.7,329.3"/>
	<path d="M154.2,306.6c-8,0-14.4,6.4-14.4,14.4c0,8,6.4,14.4,14.4,14.4c8,0,14.4-6.4,14.4-14.4C168.6,313.1,162.2,306.6,154.2,306.6
		 M154.2,329c-4.4,0-8-3.6-8-8c0-4.4,3.6-8,8-8c4.4,0,8,3.6,8,8C162.2,325.4,158.6,329,154.2,329"/>
	<path d="M182.6,307h-4.8c-0.4,0-0.8,0.4-0.8,0.8v26.5c0,0.4,0.4,0.8,0.8,0.8h4.8c0.4,0,0.8-0.4,0.8-0.8v-26.5
		C183.3,307.4,183,307,182.6,307"/>
	<path d="M210.8,327.2c0-5.4-5-7.9-8.1-9.1c-3.2-1.3-4.4-2.4-4.4-3.9c0-1.1,1.1-2,2.5-2c2.4,0,5.4,2.2,5.7,2.4
		c0.4,0.3,1.1-0.1,1.4-0.5l2-3.1c0.2-0.3,0.2-1-0.2-1.3c-1.2-0.9-4.4-3-8.6-3c-6.2,0-9.2,4-9.2,8c0,4.8,4.3,7.5,7.8,8.8
		c2.7,1.1,4.1,2.4,4.1,4c0,1.4-1.2,2.4-2.8,2.4c-2.6,0-5.5-2.1-5.7-2.2c-0.3-0.2-1-0.3-1.4,0.2l-1.9,3.3c-0.3,0.6-0.2,0.7,0.2,1.1
		c0.9,0.9,3.8,3.1,9,3.1C207.2,335.4,210.8,331.3,210.8,327.2"/>
	<path d="M256.2,321c0-7.7-6.3-14-14-14h-9.8c-0.4,0-0.7,0.4-0.7,0.8v26.5c0,0.4,0.3,0.8,0.7,0.8h9.8
		C249.8,335,256.2,328.8,256.2,321 M241.7,329.1h-3.8v-16.2h3.8c4.5,0,7.8,3.6,7.8,8.1C249.5,325.6,246.2,329.1,241.7,329.1"/>
	<path d="M291.3,321.1c0-8-6.4-14.4-14.4-14.4c-8,0-14.4,6.4-14.4,14.4c0,8,6.4,14.4,14.4,14.4C284.9,335.4,291.3,329.1,291.3,321.1
		 M276.9,329c-4.4,0-8-3.6-8-8c0-4.4,3.6-8,8-8c4.4,0,8,3.6,8,8C284.9,325.4,281.3,329,276.9,329"/>
	<path d="M321.2,315.7c0-4.8-3.9-8.6-8.7-8.6h-12c-0.4,0-0.8,0.4-0.8,0.8v26.5c0,0.4,0.3,0.8,0.8,0.8h4.8c0.4,0,0.8-0.4,0.8-0.8
		v-10.2h2.8l5.3,10.6c0.1,0.2,0.3,0.4,0.6,0.4h5.3c0.7,0,1-0.6,0.7-1.2l-5.5-10.2C318.7,322.3,321.2,319.4,321.2,315.7 M311.9,319
		H306v-6.2h5.9c1.6,0,3,1.4,3,3C315,317.5,313.6,319,311.9,319"/>
	<path d="M354.8,306.6h-0.6c-0.2,0-0.6,0.2-0.7,0.4l-9.3,17.3h-0.1l-9.3-17.3c-0.1-0.2-0.5-0.4-0.7-0.4h-0.6c-0.3,0-0.7,0.3-0.7,0.6
		l-4.5,26.9c-0.1,0.5,0.3,0.9,0.8,0.9h4.7c0.4,0,0.7-0.3,0.8-0.6l1.8-12.4h0.1l6.8,13c0.1,0.2,0.4,0.4,0.7,0.4h0.7
		c0.2,0,0.6-0.2,0.7-0.4l6.7-13h0.1l1.8,12.4c0,0.3,0.4,0.6,0.8,0.6h4.7c0.5,0,0.8-0.4,0.8-0.9l-4.5-26.9
		C355.5,306.9,355.2,306.6,354.8,306.6"/>
	<path d="M379.4,307.1c-0.1-0.2-0.4-0.4-0.7-0.4h-0.4c-0.3,0-0.6,0.2-0.7,0.4L365.2,334c-0.2,0.5,0.1,1,0.7,1h4.4
		c0.8,0,1.2-0.5,1.4-1l1.4-3.2H384l1.4,3.2c0.4,0.8,0.7,1,1.4,1h4.4c0.6,0,0.9-0.5,0.7-1L379.4,307.1z M375.5,325.4l3-6.6h0l3,6.6
		H375.5z"/>
	<path d="M422.1,307h-4.8c-0.4,0-0.8,0.4-0.8,0.8V322h0l-16-15.4h-1c-0.4,0-0.8,0.3-0.8,0.7l0,26.9c0,0.4,0.4,0.8,0.8,0.8h4.8
		c0.4,0,0.8-0.4,0.8-0.8v-14.9h0l15.8,15.9c0.1,0.1,0.4,0.2,0.5,0.2h0.6c0.4,0,0.8-0.3,0.8-0.7v-26.9
		C422.8,307.4,422.5,307,422.1,307"/>
	<path d="M448.9,307h-17.8c-0.4,0-0.8,0.4-0.8,0.8v4.4c0,0.4,0.3,0.8,0.8,0.8h5.7v21.4c0,0.4,0.4,0.8,0.8,0.8h4.8
		c0.4,0,0.8-0.4,0.8-0.8v-21.4h5.7c0.4,0,0.8-0.4,0.8-0.8v-4.4C449.7,307.4,449.4,307,448.9,307"/>
	<path d="M311.8,179.5c0-32.3-26.3-58.6-58.6-58.6c-32.3,0-58.6,26.3-58.6,58.6v99.6h117.2V179.5z M308.8,276.1H197.6v-96.6
		c0-30.7,24.9-55.6,55.6-55.6c30.7,0,55.6,24.9,55.6,55.6V276.1z"/>
	<path d="M253.1,128c-28.7,0-52,23.3-52,52v92.8h104V180C305.1,151.3,281.7,128,253.1,128 M302.1,269.8h-94.6
		c11.8-5.1,48.3-18.9,94.6-19.2V269.8z M302.1,247.6c-9.6,0.1-18.8,0.7-27.5,1.7v-27.9c6.2,6.9,14.4,11.7,23.3,13.9l0.7-2.9
		c-9.4-2.3-17.9-7.8-23.9-15.5l-0.1-0.2v-15.5c6.2,6.9,14.4,11.7,23.3,13.9l0.7-2.9c-9.4-2.3-17.9-7.8-23.9-15.5l-0.1-0.2v-15.6
		c6.2,6.9,14.4,11.7,23.3,13.9l0.7-2.9c-9.4-2.3-17.9-7.8-23.9-15.5l-1.6-2.4l-1.6,2.4c-6.1,7.7-14.4,13.1-24,15.5l0.7,2.9
		c9.1-2.3,17.1-7.1,23.3-13.9v15.6l-0.1,0.2c-6.1,7.7-14.4,13.1-24,15.5l0.7,2.9c9.1-2.3,17.1-7.1,23.3-13.9v15.5l-0.1,0.2
		c-6.1,7.7-14.4,13.1-24,15.5l0.7,2.9c9.1-2.3,17.1-7.1,23.3-13.9v28.3c-16.2,2.1-30.4,5.5-41.7,8.9v-13.8c3.6,3.5,8,6.1,12.8,7.3
		l0.7-2.9c-5.3-1.3-10.1-4.4-13.5-8.8l-0.1-0.1V233c3.6,3.5,8,6.1,12.8,7.3l0.7-2.9c-5.3-1.3-10.1-4.4-13.5-8.8l-0.1-0.1v-7.2
		c3.6,3.5,8,6.1,12.8,7.3l0.7-2.9c-5.3-1.3-10.1-4.4-13.5-8.8l-1.5-1.5l-1.1,1.1l-0.4,0.4c-3.4,4.4-8.2,7.5-13.5,8.8l0.7,2.9
		c4.7-1.2,9.1-3.6,12.6-7.1v7.2c-3.4,4.3-8.1,7.3-13.4,8.6l0.7,2.9c4.7-1.2,9.1-3.6,12.6-7.1v7.2c-3.4,4.3-8.1,7.3-13.4,8.6l0.7,2.9
		c4.7-1.2,9.1-3.6,12.6-7.1v14.5c-11.3,3.5-19.3,6.9-22.8,8.5v-88c0-27,22-49,49-49c27,0,49,22,49,49V247.6z"/>
</g>
</svg>
